<svg xmlns="http://www.w3.org/2000/svg" height="227" width="960.0" font-size="16" font-family="sans-serif" stroke-width="2">
<g transform="translate(10.0 0)">
<g fill="hsl(0, 100%, 40%)">
<text y="22">Read Index.1,000</text>
<text y="22" x="790.7982916637584" text-anchor="end">2.06 μs</text>
</g>
<g>
<title>2.06 μs ±  33 ns</title>
<rect y="28" rx="5" height="22" width="790.7982916637584" fill="hsl(0, 100%, 80%)" stroke="hsl(0, 100%, 55%)" />
<g stroke="hsl(0, 100%, 40%)"><line x1="778.2783569243907" x2="803.3182264031261" y1="39" y2="39" />
<line x1="778.2783569243907" x2="778.2783569243907" y1="33" y2="45" />
<line x1="803.3182264031261" x2="803.3182264031261" y1="33" y2="45" />
</g>
</g>
<g fill="hsl(90, 100%, 40%)">
<text y="77">Read Index.10,000</text>
<text y="77" x="887.7462509219881" text-anchor="end">2.31 μs</text>
</g>
<g>
<title>2.31 μs ± 136 ns</title>
<rect y="83" rx="5" height="22" width="887.7462509219881" fill="hsl(90, 100%, 80%)" stroke="hsl(90, 100%, 55%)" />
<g stroke="hsl(90, 100%, 40%)"><line x1="835.4925018439762" x2="940.0" y1="94" y2="94" />
<line x1="835.4925018439762" x2="835.4925018439762" y1="88" y2="100" />
<line x1="940.0" x2="940.0" y1="88" y2="100" />
</g>
</g>
<g fill="hsl(180, 100%, 40%)">
<text y="132">Read Index.100,000</text>
<text y="132" x="853.3404112628062" text-anchor="end">2.22 μs</text>
</g>
<g>
<title>2.22 μs ± 213 ns</title>
<rect y="138" rx="5" height="22" width="853.3404112628062" fill="hsl(180, 100%, 80%)" stroke="hsl(180, 100%, 55%)" />
<g stroke="hsl(180, 100%, 40%)"><line x1="771.7931611853531" x2="934.8876613402593" y1="149" y2="149" />
<line x1="771.7931611853531" x2="771.7931611853531" y1="143" y2="155" />
<line x1="934.8876613402593" x2="934.8876613402593" y1="143" y2="155" />
</g>
</g>
<g fill="hsl(270, 100%, 40%)">
<text y="187">Read Index.1,000,000</text>
<text y="187" x="845.4777541166487" text-anchor="end">2.20 μs</text>
</g>
<g>
<title>2.20 μs ± 161 ns</title>
<rect y="193" rx="5" height="22" width="845.4777541166487" fill="hsl(270, 100%, 80%)" stroke="hsl(270, 100%, 55%)" />
<g stroke="hsl(270, 100%, 40%)"><line x1="783.6945812204654" x2="907.2609270128321" y1="204" y2="204" />
<line x1="783.6945812204654" x2="783.6945812204654" y1="198" y2="210" />
<line x1="907.2609270128321" x2="907.2609270128321" y1="198" y2="210" />
</g>
</g>
</g>
</svg>
