<svg xmlns="http://www.w3.org/2000/svg" height="227" width="960.0" font-size="16" font-family="sans-serif" stroke-width="2">
<g transform="translate(10.0 0)">
<g fill="hsl(0, 100%, 40%)">
<text y="22">Read Index.1,000</text>
<text y="22" x="861.0303733101892" text-anchor="end">1.65 μs</text>
</g>
<g>
<title>1.65 μs ± 118 ns</title>
<rect y="28" rx="5" height="22" width="861.0303733101892" fill="hsl(0, 100%, 80%)" stroke="hsl(0, 100%, 55%)" />
<g stroke="hsl(0, 100%, 40%)"><line x1="799.3402257219221" x2="922.7205208984564" y1="39" y2="39" />
<line x1="799.3402257219221" x2="799.3402257219221" y1="33" y2="45" />
<line x1="922.7205208984564" x2="922.7205208984564" y1="33" y2="45" />
</g>
</g>
<g fill="hsl(90, 100%, 40%)">
<text y="77">Read Index.10,000</text>
<text y="77" x="865.5464818700415" text-anchor="end">1.65 μs</text>
</g>
<g>
<title>1.65 μs ±  94 ns</title>
<rect y="83" rx="5" height="22" width="865.5464818700415" fill="hsl(90, 100%, 80%)" stroke="hsl(90, 100%, 55%)" />
<g stroke="hsl(90, 100%, 40%)"><line x1="816.3674725724984" x2="914.7254911675846" y1="94" y2="94" />
<line x1="816.3674725724984" x2="816.3674725724984" y1="88" y2="100" />
<line x1="914.7254911675846" x2="914.7254911675846" y1="88" y2="100" />
</g>
</g>
<g fill="hsl(180, 100%, 40%)">
<text y="132">Read Index.100,000</text>
<text y="132" x="858.1113868041804" text-anchor="end">1.64 μs</text>
</g>
<g>
<title>1.64 μs ±  97 ns</title>
<rect y="138" rx="5" height="22" width="858.1113868041804" fill="hsl(180, 100%, 80%)" stroke="hsl(180, 100%, 55%)" />
<g stroke="hsl(180, 100%, 40%)"><line x1="807.153145860809" x2="909.0696277475517" y1="149" y2="149" />
<line x1="807.153145860809" x2="807.153145860809" y1="143" y2="155" />
<line x1="909.0696277475517" x2="909.0696277475517" y1="143" y2="155" />
</g>
</g>
<g fill="hsl(270, 100%, 40%)">
<text y="187">Read Index.1,000,000</text>
<text y="187" x="874.78069411189" text-anchor="end">1.67 μs</text>
</g>
<g>
<title>1.67 μs ± 125 ns</title>
<rect y="193" rx="5" height="22" width="874.78069411189" fill="hsl(270, 100%, 80%)" stroke="hsl(270, 100%, 55%)" />
<g stroke="hsl(270, 100%, 40%)"><line x1="809.5613882237801" x2="940.0" y1="204" y2="204" />
<line x1="809.5613882237801" x2="809.5613882237801" y1="198" y2="210" />
<line x1="940.0" x2="940.0" y1="198" y2="210" />
</g>
</g>
</g>
</svg>
