<svg xmlns="http://www.w3.org/2000/svg" height="227" width="960.0" font-size="16" font-family="sans-serif" stroke-width="2">
<g transform="translate(10.0 0)">
<g fill="hsl(0, 100%, 40%)">
<text y="22">Read Index.1,000</text>
<text y="22" x="858.403063069548" text-anchor="end">1.60 μs</text>
</g>
<g>
<title>1.60 μs ± 114 ns</title>
<rect y="28" rx="5" height="22" width="858.403063069548" fill="hsl(0, 100%, 80%)" stroke="hsl(0, 100%, 55%)" />
<g stroke="hsl(0, 100%, 40%)"><line x1="797.0249217179377" x2="919.7812044211583" y1="39" y2="39" />
<line x1="797.0249217179377" x2="797.0249217179377" y1="33" y2="45" />
<line x1="919.7812044211583" x2="919.7812044211583" y1="33" y2="45" />
</g>
</g>
<g fill="hsl(90, 100%, 40%)">
<text y="77">Read Index.10,000</text>
<text y="77" x="876.3679865356567" text-anchor="end">1.63 μs</text>
</g>
<g>
<title>1.63 μs ±  91 ns</title>
<rect y="83" rx="5" height="22" width="876.3679865356567" fill="hsl(90, 100%, 80%)" stroke="hsl(90, 100%, 55%)" />
<g stroke="hsl(90, 100%, 40%)"><line x1="827.5142210270675" x2="925.2217520442458" y1="94" y2="94" />
<line x1="827.5142210270675" x2="827.5142210270675" y1="88" y2="100" />
<line x1="925.2217520442458" x2="925.2217520442458" y1="88" y2="100" />
</g>
</g>
<g fill="hsl(180, 100%, 40%)">
<text y="132">Read Index.100,000</text>
<text y="132" x="863.0719132358814" text-anchor="end">1.61 μs</text>
</g>
<g>
<title>1.61 μs ± 134 ns</title>
<rect y="138" rx="5" height="22" width="863.0719132358814" fill="hsl(180, 100%, 80%)" stroke="hsl(180, 100%, 55%)" />
<g stroke="hsl(180, 100%, 40%)"><line x1="791.029632638464" x2="935.1141938332988" y1="149" y2="149" />
<line x1="791.029632638464" x2="791.029632638464" y1="143" y2="155" />
<line x1="935.1141938332988" x2="935.1141938332988" y1="143" y2="155" />
</g>
</g>
<g fill="hsl(270, 100%, 40%)">
<text y="187">Read Index.1,000,000</text>
<text y="187" x="864.5680504067353" text-anchor="end">1.61 μs</text>
</g>
<g>
<title>1.61 μs ± 140 ns</title>
<rect y="193" rx="5" height="22" width="864.5680504067353" fill="hsl(270, 100%, 80%)" stroke="hsl(270, 100%, 55%)" />
<g stroke="hsl(270, 100%, 40%)"><line x1="789.1361008134706" x2="940.0" y1="204" y2="204" />
<line x1="789.1361008134706" x2="789.1361008134706" y1="198" y2="210" />
<line x1="940.0" x2="940.0" y1="198" y2="210" />
</g>
</g>
</g>
</svg>
